<svg width="27.000000" height="24.000000" viewBox="0 0 27 24" fill="none" xmlns="http://www.w3.org/2000/svg" xmlns:xlink="http://www.w3.org/1999/xlink" id="heart">

	<defs/>
	<path id="Vector" d="M3 0L6 0L6 3L3 3L3 0Z" fill="#000000" fill-opacity="1.000000" fill-rule="evenodd"/>
	<path id="Vector" d="M6 0L9 0L9 3L6 3L6 0Z" fill="#000000" fill-opacity="1.000000" fill-rule="evenodd"/>
	<path id="Vector" d="M0 3L3 3L3 6L0 6L0 3Z" fill="#000000" fill-opacity="1.000000" fill-rule="evenodd"/>
	<path id="Vector" d="M0 6L3 6L3 9L0 9L0 6Z" fill="#000000" fill-opacity="1.000000" fill-rule="evenodd"/>
	<path id="Vector" d="M0 9L3 9L3 12L0 12L0 9Z" fill="#000000" fill-opacity="1.000000" fill-rule="evenodd"/>
	<path id="Vector" d="M9 0L12 0L12 3L9 3L9 0Z" fill="#000000" fill-opacity="1.000000" fill-rule="evenodd"/>
	<path id="Vector" d="M3 12L6 12L6 15L3 15L3 12Z" fill="#000000" fill-opacity="1.000000" fill-rule="evenodd"/>
	<path id="Vector" d="M6 15L9 15L9 18L6 18L6 15Z" fill="#000000" fill-opacity="1.000000" fill-rule="evenodd"/>
	<path id="Vector" d="M9 18L12 18L12 21L9 21L9 18Z" fill="#000000" fill-opacity="1.000000" fill-rule="evenodd"/>
	<path id="Vector" d="M24 0L21 0L21 3L24 3L24 0Z" fill="#000000" fill-opacity="1.000000" fill-rule="evenodd"/>
	<path id="Vector" d="M21 0L18 0L18 3L21 3L21 0Z" fill="#000000" fill-opacity="1.000000" fill-rule="evenodd"/>
	<path id="Vector" d="M27 3L24 3L24 6L27 6L27 3Z" fill="#000000" fill-opacity="1.000000" fill-rule="evenodd"/>
	<path id="Vector" d="M27 6L24 6L24 9L27 9L27 6Z" fill="#000000" fill-opacity="1.000000" fill-rule="evenodd"/>
	<path id="Vector" d="M27 9L24 9L24 12L27 12L27 9Z" fill="#000000" fill-opacity="1.000000" fill-rule="evenodd"/>
	<path id="Vector" d="M18 0L15 0L15 3L18 3L18 0Z" fill="#000000" fill-opacity="1.000000" fill-rule="evenodd"/>
	<path id="Vector" d="M24 12L21 12L21 15L24 15L24 12Z" fill="#000000" fill-opacity="1.000000" fill-rule="evenodd"/>
	<path id="Vector" d="M21 15L18 15L18 18L21 18L21 15Z" fill="#000000" fill-opacity="1.000000" fill-rule="evenodd"/>
	<path id="Vector" d="M18 18L15 18L15 21L18 21L18 18Z" fill="#000000" fill-opacity="1.000000" fill-rule="evenodd"/>
	<path id="Vector" d="M12 3L15 3L15 6L12 6L12 3Z" fill="#000000" fill-opacity="1.000000" fill-rule="evenodd"/>
	<path id="Vector" d="M12 21L15 21L15 24L12 24L12 21Z" fill="#000000" fill-opacity="1.000000" fill-rule="evenodd"/>
</svg>
